<svg xmlns="http://www.w3.org/2000/svg" width="23" height="30" viewBox="0 0 23 30" fill="none"><path d="M23 1C23 0.447716 22.5523 0 22 0H17.5827C17.2226 0 16.8903 0.193655 16.7127 0.506987L0.84604 28.507C0.468281 29.1736 0.949836 30 1.71606 30H22C22.5523 30 23 29.5523 23 29V1Z" fill="#B3E7D6" style="fill:#B3E7D6;fill:color(display-p3 0.7014 0.9070 0.8373);fill-opacity:1;"></path><path d="M17.4974 26C17.959 26 18.3307 25.7116 18.3307 25.3586V21.6414C18.3307 21.2861 17.956 21 17.4974 21C17.0358 21 16.6641 21.2884 16.6641 21.6414V25.3586C16.6641 25.7139 17.0388 26 17.4974 26Z" fill="#42806B" style="fill:#42806B;fill:color(display-p3 0.2588 0.5020 0.4196);fill-opacity:1;"></path><path d="M15 23.4998C15 23.9615 15.2884 24.3332 15.6414 24.3332H19.3586C19.7139 24.3332 20 23.9585 20 23.4998C20 23.0382 19.7116 22.6665 19.3586 22.6665H15.6414C15.2861 22.6665 15 23.0412 15 23.4998Z" fill="#42806B" style="fill:#42806B;fill:color(display-p3 0.2588 0.5020 0.4196);fill-opacity:1;"></path><path d="M17.4974 14C17.959 14 18.3307 13.7116 18.3307 13.3586V9.64142C18.3307 9.28609 17.956 9 17.4974 9C17.0358 9 16.6641 9.2884 16.6641 9.64142V13.3586C16.6641 13.7139 17.0388 14 17.4974 14Z" fill="#42806B" style="fill:#42806B;fill:color(display-p3 0.2588 0.5020 0.4196);fill-opacity:1;"></path><path d="M15 11.4998C15 11.9615 15.2884 12.3332 15.6414 12.3332H19.3586C19.7139 12.3332 20 11.9585 20 11.4998C20 11.0382 19.7116 10.6665 19.3586 10.6665H15.6414C15.2861 10.6665 15 11.0412 15 11.4998Z" fill="#42806B" style="fill:#42806B;fill:color(display-p3 0.2588 0.5020 0.4196);fill-opacity:1;"></path><path d="M4 10C4.55395 10 5 9.65392 5 9.2303V4.7697C5 4.34331 4.55035 4 4 4C3.44605 4 3 4.34608 3 4.7697V9.2303C3 9.65669 3.44965 10 4 10Z" fill="#42806B" style="fill:#42806B;fill:color(display-p3 0.2588 0.5020 0.4196);fill-opacity:1;"></path><path d="M1 7C1 7.55395 1.34608 8 1.7697 8H6.23026C6.65666 8 7 7.55035 7 7C7 6.44605 6.65389 6 6.23026 6H1.7697C1.34331 6 1 6.44965 1 7Z" fill="#42806B" style="fill:#42806B;fill:color(display-p3 0.2588 0.5020 0.4196);fill-opacity:1;"></path></svg>