<svg xmlns="http://www.w3.org/2000/svg" width="65" height="62" viewBox="0 0 28 29" fill="none"><path d="M13.3332 0L13.3332 26.1478C13.3332 26.1478 13.2608 28.2558 11.5661 28.3075C9.97127 28.3557 9.81626 26.4509 9.80248 25.4967C9.57514 25.4967 9.39258 25.6793 9.39258 25.9066C9.39258 27.8253 10.5121 28.7002 11.5489 28.7002C12.6408 28.7002 13.7465 27.7426 13.7465 25.9066L13.7465 0.409904C13.7465 0.182562 13.564 0 13.3366 0L13.3332 0Z" fill="#42806B" style="fill:#42806B;fill:color(display-p3 0.2588 0.5020 0.4196);fill-opacity:1;"></path><path d="M11.5702 28.3041C13.2649 28.2524 13.3373 26.1443 13.3373 26.1443L13.3373 0C13.1099 0 12.9274 0.182562 12.9274 0.409904L12.9274 25.9066C12.9274 27.2604 12.2143 27.8769 11.553 27.8769C10.8916 27.8769 10.2199 27.2604 10.2199 25.9066C10.2199 25.6793 10.0374 25.4967 9.81348 25.4967C9.82725 26.4509 9.98226 28.3557 11.5771 28.3075L11.5702 28.3041Z" fill="#42806B" style="fill:#42806B;fill:color(display-p3 0.2588 0.5020 0.4196);fill-opacity:1;"></path><path d="M13.3305 1.94629C6.66869 1.94629 0.24112 7.78139 0 15.077C0 15.077 1.21249 14.3261 2.54554 14.2916C2.77288 12.4901 3.34468 10.4027 4.55717 8.2223C7.34727 3.21045 13.3305 1.94629 13.3305 1.94629Z" fill="#E9B93E" style="fill:#E9B93E;fill:color(display-p3 0.9137 0.7255 0.2431);fill-opacity:1;"></path><path d="M5.40931 15.077C5.62632 5.05674 13.3318 1.94629 13.3318 1.94629C13.3318 1.94629 7.34861 3.21045 4.55851 8.2223C3.34602 10.4027 2.77422 12.4901 2.54687 14.2916C2.57788 14.2916 2.60888 14.2916 2.63988 14.2916C4.04526 14.2916 5.40931 15.0804 5.40931 15.0804V15.077Z" fill="#073937" style="fill:#073937;fill:color(display-p3 0.0275 0.2235 0.2157);fill-opacity:1;"></path><path d="M13.3284 1.94635C13.3284 1.94635 13.2699 1.97046 13.17 2.01524C12.6395 2.45615 9.93208 5.13602 9.43262 14.1884C11.7474 14.2056 13.3284 15.0771 13.3284 15.0771V1.94635Z" fill="#073937" style="fill:#073937;fill:color(display-p3 0.0275 0.2235 0.2157);fill-opacity:1;"></path><path d="M13.3317 1.94625C12.1123 2.42505 5.60552 5.90062 5.40918 15.077C5.40918 15.077 6.71812 14.1848 9.37044 14.1848C9.39111 14.1848 9.41177 14.1848 9.43589 14.1848C9.93535 5.13593 12.7358 2.34238 13.3317 1.94281V1.94625Z" fill="#E9B93E" style="fill:#E9B93E;fill:color(display-p3 0.9137 0.7255 0.2431);fill-opacity:1;"></path><path d="M21.2614 15.0769C21.0444 5.05662 13.3389 1.94617 13.3389 1.94617C13.3389 1.94617 16.0842 4.82239 16.904 9.65857C17.2416 11.6564 17.4138 13.1445 17.4861 14.2571C17.5309 14.2571 17.5757 14.2571 17.6239 14.2571C19.5012 14.2571 21.2648 15.0803 21.2648 15.0803L21.2614 15.0769Z" fill="#073937" style="fill:#073937;fill:color(display-p3 0.0275 0.2235 0.2157);fill-opacity:1;"></path><path d="M13.333 1.94617V15.0769C13.333 15.0769 15.0518 14.2881 17.4803 14.2571C17.4045 13.1445 17.2357 11.6564 16.8981 9.65857C16.0783 4.82239 13.333 1.94617 13.333 1.94617Z" fill="#E9B93E" style="fill:#E9B93E;fill:color(display-p3 0.9137 0.7255 0.2431);fill-opacity:1;"></path><path d="M13.3311 1.94617C13.3311 1.94617 21.0366 5.05662 21.2536 15.0769C21.2536 15.0769 22.9277 14.357 24.9807 14.357C25.0737 14.357 25.1632 14.357 25.2528 14.3639C24.8773 12.8517 23.9679 10.344 21.6532 6.98902C18.7529 2.7832 13.3242 1.94617 13.3242 1.94617H13.3311Z" fill="#E9B93E" style="fill:#E9B93E;fill:color(display-p3 0.9137 0.7255 0.2431);fill-opacity:1;"></path><path d="M13.3301 1.94617C13.3301 1.94617 18.7587 2.7832 21.6591 6.98902C23.9738 10.344 24.8797 12.8517 25.2586 14.3639C26.8638 14.4327 28.0005 15.0769 28.0005 15.0769C27.7594 7.78127 19.9919 1.94617 13.3335 1.94617H13.3301Z" fill="#073937" style="fill:#073937;fill:color(display-p3 0.0275 0.2235 0.2157);fill-opacity:1;"></path><path d="M4.45674 11.8596C4.45674 11.8596 3.9125 11.7012 3.58182 11.3257C3.32692 11.0364 3.1478 10.4439 3.1478 10.4439C3.1478 10.4439 2.96869 11.0329 2.71379 11.3257C2.38311 11.7046 1.83887 11.8596 1.83887 11.8596C1.83887 11.8596 2.36933 12.0491 2.66901 12.3798C2.96869 12.7104 3.15125 13.2271 3.15125 13.2271C3.15125 13.2271 3.32692 12.7104 3.63004 12.3798C3.92972 12.0491 4.46019 11.8596 4.46019 11.8596H4.45674Z" fill="#F5D77F" style="fill:#F5D77F;fill:color(display-p3 0.9608 0.8431 0.4980);fill-opacity:1;"></path></svg>