<svg xmlns="http://www.w3.org/2000/svg" xmlns:xlink="http://www.w3.org/1999/xlink" id="Layer_1" x="0px" y="0px" viewBox="0 0 512 512" style="enable-background:new 0 0 512 512;" xml:space="preserve"><style type="text/css">	.st0{fill:#F18F20;}</style><g>	<g id="LINE_206_">		<g>			<path class="st0" d="M205.8,392.6c-3.6,0-7.2-1.2-10.2-3.7c-6.8-5.7-7.7-15.7-2-22.5L294,245.8c5.7-6.8,15.7-7.7,22.5-2    s7.7,15.7,2,22.5L218,386.8C214.9,390.6,210.3,392.6,205.8,392.6L205.8,392.6z"></path>		</g>	</g>	<g id="LINE_207_">		<g>			<path class="st0" d="M306.2,272c-4.6,0-9.1-2-12.3-5.8L193.5,145.7c-5.7-6.8-4.7-16.9,2-22.5c6.8-5.7,16.9-4.7,22.5,2    l100.5,120.6c5.7,6.8,4.7,16.9-2,22.5C313.5,270.8,309.9,272,306.2,272z"></path>		</g>	</g>	<g id="LINE_208_">		<g>			<path class="st0" d="M96,392.6c-3.6,0-7.2-1.2-10.2-3.7c-6.8-5.7-7.7-15.7-2-22.5l100.5-120.6c5.6-6.8,15.7-7.7,22.5-2    s7.7,15.7,2,22.5L108.3,386.8C105.1,390.6,100.6,392.6,96,392.6L96,392.6z"></path>		</g>	</g>	<g id="LINE_209_">		<g>			<path class="st0" d="M196.5,272c-4.6,0-9.1-2-12.3-5.8L83.7,145.7c-5.7-6.8-4.7-16.9,2-22.5c6.8-5.7,16.9-4.7,22.5,2l100.5,120.6    c5.7,6.8,4.7,16.9-2,22.5C203.7,270.8,200.1,272,196.5,272z"></path>		</g>	</g>	<g id="LINE_210_">		<g>			<path class="st0" d="M315.5,392.6c-3.6,0-7.2-1.2-10.2-3.7c-6.8-5.7-7.7-15.7-2-22.5l100.5-120.6c5.7-6.8,15.7-7.7,22.5-2    s7.7,15.7,2,22.5L327.8,386.8C324.6,390.6,320.1,392.6,315.5,392.6L315.5,392.6z"></path>		</g>	</g>	<g id="LINE_211_">		<g>			<path class="st0" d="M416,272c-4.6,0-9.1-2-12.3-5.8L303.2,145.7c-5.7-6.8-4.7-16.9,2-22.5c6.8-5.7,16.9-4.7,22.5,2l100.5,120.6    c5.7,6.8,4.7,16.9-2,22.5C423.2,270.8,419.6,272,416,272z"></path>		</g>	</g></g></svg>