<svg xmlns="http://www.w3.org/2000/svg" width="57" height="55" viewBox="0 0 57 55" fill="none"><path d="M46.106 54.0194C49.8785 52.2604 52.5663 49.4652 55.5127 46.6156C56.2359 45.9145 56.2762 44.8854 55.467 44.2226C52.8489 42.084 50.2061 39.9726 47.588 37.834C46.0883 36.608 44.3176 39.0388 45.8139 40.2604C47.5199 41.6538 49.2366 43.0377 50.9489 44.4249C50.8438 44.4226 50.7333 44.4312 50.6179 44.4532C43.8606 45.7157 34.7031 45.1195 31.6655 37.7817C31.4859 37.3501 31.3373 36.8976 31.2118 36.4358C33.2752 35.434 35.1304 33.9936 36.6743 32.3062C38.2798 30.5497 39.651 27.7094 37.6876 25.6725C36.1185 24.0437 33.5207 24.4649 31.7911 25.5973C29.9128 26.8253 28.6881 28.9451 28.1711 31.0917C27.9021 32.2144 27.8132 33.3674 27.8752 34.5141C25.3081 35.2532 22.5479 35.1498 20.0883 33.8679C17.9689 32.7627 16.3479 30.8747 15.7632 28.6993C17.4627 28.3748 19.0953 27.687 20.6584 26.8704C22.6927 25.8069 25.2059 24.3679 25.6983 21.9096C26.1933 19.4259 24.1979 17.5346 21.844 17.2889C19.4416 17.0375 17.0556 18.203 15.4152 19.8939C13.7995 21.5576 12.8688 23.6387 12.622 25.791C12.2783 25.7395 11.9353 25.6655 11.5897 25.5646C7.59034 24.3997 4.62705 20.74 3.82181 16.7306C2.84636 11.8817 4.40364 6.97533 6.69521 2.73104C7.60998 1.03667 4.79233 -0.0199416 3.88339 1.66584C1.06689 6.87983 -0.477628 13.0668 1.28557 18.8839C2.77917 23.8108 7.10182 27.9485 12.2454 28.7778C12.4098 28.8038 12.5709 28.8253 12.7334 28.8416C13.0553 30.554 13.816 32.2026 15.0237 33.6089C18.3514 37.4806 23.5795 38.7398 28.3861 37.4909C29.1921 40.2644 30.8814 42.7971 33.1802 44.5158C38.0219 48.1358 44.4182 48.5192 50.2109 47.5804C48.6225 49.0221 46.9404 50.3249 44.9154 51.267C43.1607 52.0853 44.3599 54.8436 46.1146 54.0253L46.106 54.0194ZM18.8583 20.9382C19.8183 20.3812 23.9267 19.6767 22.4431 21.9281C21.4265 23.4675 19.0443 24.4181 17.4378 25.086C16.8467 25.3308 16.2465 25.5276 15.6444 25.6625C15.7173 25.2873 15.8195 24.9091 15.9591 24.5311C16.5008 23.0749 17.4994 21.7283 18.8583 20.9382ZM32.33 29.1642C32.8182 28.5503 35.4424 26.4399 35.656 28.2378C35.8572 29.9309 32.4336 32.2387 31.2439 32.989C31.1194 33.0676 30.9887 33.1399 30.8637 33.2161C30.9533 31.754 31.3997 30.3334 32.33 29.1642ZM52.2227 45.4598C52.258 45.488 52.2933 45.5161 52.329 45.5467C52.3058 45.5685 52.283 45.5928 52.2598 45.6147C52.2497 45.5618 52.24 45.5113 52.2227 45.4598Z" fill="white"></path></svg>