<svg xmlns="http://www.w3.org/2000/svg" width="40" height="40" viewBox="0 0 40 40" fill="none"><path d="M20.9334 16.2893C21.9611 15.2442 23.3677 14.659 24.8334 14.6666C26.3795 14.6754 27.8653 15.2678 28.9934 16.3253C29.5034 16.7805 30.2739 16.7805 30.7841 16.3253L30.9634 16.1587C31.8752 15.1793 33.1622 14.6364 34.5 14.6666C35.6661 14.7048 36.7918 15.1027 37.7226 15.8059L37.9226 15.9393C38.3455 16.21 38.8823 16.2283 39.3226 15.9873C39.7419 15.764 40.0026 15.3268 40 14.8519V13.4446C40 5.65398 31.5887 0 20 0C8.41134 0 1.57181e-05 5.65398 1.57181e-05 13.4447V14.852C-0.00232803 15.3258 0.257594 15.7619 0.675328 15.9854C1.11564 16.227 1.65283 16.2083 2.07533 15.9367L2.27533 15.8033C3.20712 15.1007 4.33353 14.7036 5.50001 14.6667C6.83774 14.6362 8.1247 15.1789 9.03665 16.158L9.21595 16.3247C9.72618 16.7803 10.4971 16.7803 11.0073 16.3247C12.135 15.2673 13.6207 14.6751 15.1666 14.6667C16.6496 14.6631 18.0707 15.2614 19.1045 16.3247C19.1746 16.3872 19.2512 16.442 19.3332 16.488V20H16.6666C15.562 20 14.6666 20.8954 14.6666 22V22.6666H10C8.89548 22.6666 8.00001 23.5621 8.00001 24.6666V28.64C7.99931 29.1909 8.2436 29.7137 8.66665 30.0666V38C8.66665 39.1045 9.56212 40 10.6666 40H29.3333C30.4378 40 31.3333 39.1046 31.3333 38V30.0666C31.7557 29.7143 31.9998 29.1926 31.9999 28.6426V24.6666C31.9999 23.5621 31.1044 22.6666 29.9999 22.6666H25.3333V22C25.3333 20.8954 24.4378 20 23.3333 20H20.6666V16.488C20.7486 16.442 20.8252 16.3873 20.8953 16.3246L20.9334 16.2893ZM9.33337 24.6666C9.33337 24.2984 9.63188 24 10 24H18V29.5186C17.5916 29.7535 17.338 30.1869 17.3334 30.6579C13.1254 30.57 10.71 29.6693 9.62204 29.1206C9.44259 29.0279 9.33079 28.8419 9.33337 28.6399V24.6666ZM18.6666 30.6666H21.3333V32H18.6666V30.6666ZM20.6666 29.3333H19.3333V24H20.6666V29.3333ZM29.3334 38.6666H10.6666C10.2984 38.6666 10 38.3682 10 38V30.7407C12.3534 31.5796 14.8348 32.0027 17.3334 31.9914V32C17.3334 32.7365 17.9303 33.3334 18.6667 33.3334H21.3334C22.0698 33.3334 22.6667 32.7365 22.6667 32V31.9914C25.1652 32.0028 27.6466 31.5796 30.0001 30.7407V38C30 38.3682 29.7016 38.6666 29.3334 38.6666ZM30.6666 24.6666V28.64C30.6691 28.8421 30.557 29.0282 30.3773 29.1207C29.2894 29.6667 26.874 30.57 22.6666 30.658C22.662 30.1869 22.4084 29.7535 22 29.5187V24H30C30.3682 24 30.6666 24.2985 30.6666 24.6666ZM24 22V22.6666H16V22C16 21.6318 16.2984 21.3333 16.6666 21.3333H23.3333C23.7016 21.3333 24 21.6318 24 22ZM5.50001 13.3333C4.07626 13.3718 2.69829 13.8444 1.55072 14.688L1.33337 14.852V13.4447C1.33337 7.70468 6.58673 3.25398 14.418 1.82265C11.302 4.08867 9.33337 8.29335 9.33337 13.4447V14.6447C8.25274 13.7645 6.89329 13.2994 5.50001 13.3333ZM15.1666 13.3333C13.5372 13.335 11.9544 13.8776 10.6666 14.876V13.4447C10.6666 6.71999 14.2746 1.77805 19.3333 1.37265V14.7666C18.1494 13.8262 16.6787 13.3202 15.1666 13.3333ZM24.8334 13.3333C23.3214 13.3202 21.8506 13.8262 20.6667 14.7667V1.37265C25.7254 1.77601 29.3334 6.71999 29.3334 13.4447V14.8754C28.0455 13.8771 26.4627 13.3347 24.8334 13.3333ZM38.6407 14.812L38.4494 14.688C37.3018 13.8445 35.9238 13.3718 34.5001 13.3333C33.1071 13.2989 31.7476 13.7633 30.6667 14.6426V13.4426C30.6667 8.29132 28.698 4.08664 25.582 1.82062C33.4133 3.25398 38.6666 7.70468 38.6666 13.4447L38.6407 14.812Z" fill="#42806B" style="fill:#42806B;fill:color(display-p3 0.2588 0.5020 0.4196);fill-opacity:1;"/></svg>