<svg xmlns="http://www.w3.org/2000/svg" width="40" height="45" viewBox="0 0 40 45" fill="none"><path d="M34.1424 7.22492C30.5814 3.64463 25.79 1.55554 20.7432 1.38269V0.740695C20.7432 0.54425 20.6652 0.355852 20.5263 0.216944C20.3874 0.0780372 20.199 0 20.0026 0C19.8061 0 19.6177 0.0780372 19.4788 0.216944C19.3399 0.355852 19.2619 0.54425 19.2619 0.740695V1.38223C14.0888 1.57242 9.19103 3.7613 5.59871 7.48852C2.00639 11.2157 -0.000546746 16.1908 1.11728e-07 21.3674C1.11728e-07 21.6832 0.00629609 21.9709 0.0191657 22.247C0.0280263 22.4368 0.109529 22.616 0.246812 22.7474C0.384095 22.8789 0.566652 22.9525 0.756712 22.9531H0.75912C0.948771 22.9531 1.13119 22.8803 1.26879 22.7498C1.40638 22.6193 1.48868 22.441 1.4987 22.2516C1.55459 21.1915 2.02222 20.1952 2.80195 19.4748C3.58169 18.7545 4.61189 18.3671 5.67306 18.3952C6.73424 18.4232 7.7425 18.8646 8.48304 19.6252C9.22357 20.3858 9.63782 21.4055 9.63755 22.467C9.63755 22.6635 9.71559 22.8519 9.8545 22.9908C9.9934 23.1297 10.1818 23.2077 10.3782 23.2077C10.5747 23.2077 10.7631 23.1297 10.902 22.9908C11.0409 22.8519 11.1189 22.6635 11.1189 22.467C11.1164 21.9307 11.2198 21.3992 11.4233 20.903C11.6267 20.4068 11.9262 19.9556 12.3046 19.5755C12.6829 19.1954 13.1326 18.8937 13.6278 18.6879C14.1231 18.4821 14.6541 18.3761 15.1904 18.3761C15.7267 18.3761 16.2577 18.4821 16.753 18.6879C17.2482 18.8937 17.6979 19.1954 18.0762 19.5755C18.4546 19.9556 18.7541 20.4068 18.9575 20.903C19.161 21.3992 19.2644 21.9307 19.2619 22.467C19.2619 22.6635 19.3399 22.8519 19.4788 22.9908C19.6177 23.1297 19.8061 23.2077 20.0026 23.2077C20.199 23.2077 20.3874 23.1297 20.5263 22.9908C20.6652 22.8519 20.7432 22.6635 20.7432 22.467C20.7407 21.9307 20.8441 21.3992 21.0476 20.9029C21.2511 20.4067 21.5506 19.9556 21.9289 19.5754C22.3072 19.1953 22.7569 18.8936 23.2522 18.6878C23.7474 18.482 24.2785 18.376 24.8148 18.376C25.3511 18.376 25.8822 18.482 26.3774 18.6878C26.8727 18.8936 27.3224 19.1953 27.7007 19.5754C28.079 19.9556 28.3785 20.4067 28.582 20.9029C28.7855 21.3992 28.8889 21.9307 28.8864 22.467C28.8864 22.6635 28.9644 22.8519 29.1033 22.9908C29.2422 23.1297 29.4306 23.2077 29.6271 23.2077C29.8235 23.2077 30.0119 23.1297 30.1508 22.9908C30.2897 22.8519 30.3677 22.6635 30.3677 22.467C30.368 21.4105 30.7789 20.3954 31.5136 19.6361C32.2483 18.8768 33.2493 18.4327 34.3053 18.3976C35.3613 18.3624 36.3896 18.7391 37.1731 19.4479C37.9566 20.1567 38.434 21.1423 38.5045 22.1965C38.5173 22.3862 38.6026 22.5637 38.7426 22.6923C38.8827 22.8209 39.0669 22.8906 39.257 22.8872C39.4471 22.8837 39.6286 22.8072 39.7639 22.6736C39.8992 22.54 39.9779 22.3595 39.9838 22.1695C39.9918 21.911 39.9999 21.6437 39.9999 21.3673C40.0072 18.7398 39.4932 16.1369 38.4878 13.7094C37.4823 11.2818 36.0054 9.07783 34.1424 7.22492ZM5.56465 16.9128C4.12533 16.9113 2.74194 17.4702 1.70758 18.4711C2.85927 11.1713 8.29134 5.2756 15.344 3.44229C14.3063 4.43491 13.357 5.76909 12.5334 7.41769C10.9748 10.5379 10.0012 14.5047 9.72162 18.7881C9.20141 18.1985 8.56169 17.7264 7.84497 17.4031C7.12825 17.0797 6.35093 16.9126 5.56465 16.9128ZM15.1891 16.9128C14.449 16.9125 13.7164 17.0606 13.0345 17.3485C12.3527 17.6363 11.7355 18.0581 11.2195 18.5887C11.5097 14.6152 12.4215 10.9563 13.8582 8.08005C15.3602 5.07348 17.2562 3.2723 19.2614 2.91584V18.6945C18.7424 18.1324 18.1127 17.684 17.4118 17.3773C16.7109 17.0707 15.9542 16.9125 15.1891 16.9128ZM24.8161 16.9128C24.051 16.9125 23.2941 17.0706 22.5932 17.3772C21.8922 17.6839 21.2623 18.1324 20.7432 18.6945V2.91649C22.7458 3.27517 24.6395 5.07589 26.1403 8.07968C27.5772 10.9552 28.4892 14.6119 28.7801 18.5826C28.2643 18.0538 27.6478 17.6336 26.967 17.3468C26.2862 17.0601 25.5549 16.9125 24.8161 16.9128ZM34.4405 16.9128C33.653 16.9126 32.8744 17.0802 32.1568 17.4045C31.4392 17.7288 30.7989 18.2024 30.2787 18.7936C29.9993 14.5084 29.0253 10.5393 27.4655 7.41759C26.6415 5.7689 25.6921 4.43454 24.6545 3.44173C31.709 5.27495 37.1423 11.1727 38.2925 18.4743C37.2598 17.4737 35.8785 16.9138 34.4405 16.9128ZM24.9085 39.3459V44.2565C24.9085 44.453 24.8305 44.6414 24.6916 44.7803C24.5527 44.9192 24.3643 44.9972 24.1679 44.9972C23.9714 44.9972 23.783 44.9192 23.6441 44.7803C23.5052 44.6414 23.4272 44.453 23.4272 44.2565V39.3459C23.4272 39.1494 23.5052 38.961 23.6441 38.8221C23.783 38.6832 23.9714 38.6052 24.1679 38.6052C24.3643 38.6052 24.5527 38.6832 24.6916 38.8221C24.8305 38.961 24.9085 39.1494 24.9085 39.3459ZM16.5728 39.3459V44.2565C16.5728 44.453 16.4947 44.6414 16.3558 44.7803C16.2169 44.9192 16.0285 44.9972 15.8321 44.9972C15.6356 44.9972 15.4472 44.9192 15.3083 44.7803C15.1694 44.6414 15.0914 44.453 15.0914 44.2565V39.3459C15.0914 39.1494 15.1694 38.961 15.3083 38.8221C15.4472 38.6832 15.6356 38.6052 15.8321 38.6052C16.0285 38.6052 16.2169 38.6832 16.3558 38.8221C16.4947 38.961 16.5728 39.1494 16.5728 39.3459ZM31.1937 33.0893C31.7972 32.231 32.1103 31.1008 32.1103 30.0049C32.1127 29.5306 32.0214 29.0605 31.8415 28.6215C31.6617 28.1826 31.3969 27.7836 31.0623 27.4473C30.7278 27.1111 30.3301 26.8443 29.8921 26.6622C29.4541 26.4801 28.9845 26.3864 28.5101 26.3864C28.0358 26.3864 27.5662 26.4801 27.1282 26.6622C26.6902 26.8443 26.2925 27.1111 25.9579 27.4473C25.6234 27.7836 25.3586 28.1826 25.1787 28.6215C24.9989 29.0605 24.9075 29.5306 24.9099 30.0049C24.9099 31.1009 25.2232 32.2311 25.8265 33.0895C25.1884 33.1623 24.5779 33.3904 24.0483 33.7537C23.781 33.7145 23.5112 33.6947 23.2411 33.6946C24.3377 32.4683 24.9113 30.649 24.9113 28.8921C24.9113 27.5892 24.3938 26.3397 23.4725 25.4185C22.5512 24.4972 21.3017 23.9796 19.9989 23.9796C18.696 23.9796 17.4465 24.4972 16.5252 25.4185C15.6039 26.3397 15.0864 27.5892 15.0864 28.8921C15.0864 30.2976 15.4965 31.8021 16.1837 32.9166C16.3526 33.1917 16.5446 33.4519 16.7578 33.6943C16.4878 33.6944 16.2182 33.7141 15.951 33.7533C15.4214 33.3905 14.8112 33.1626 14.1734 33.0893C14.777 32.2309 15.0905 31.1007 15.0905 30.0046C15.0929 29.5303 15.0015 29.0602 14.8217 28.6213C14.6418 28.1824 14.377 27.7833 14.0425 27.4471C13.7079 27.1108 13.3102 26.844 12.8722 26.6619C12.4342 26.4799 11.9646 26.3861 11.4903 26.3861C11.0159 26.3861 10.5463 26.4799 10.1083 26.6619C9.6703 26.844 9.27261 27.1108 8.93806 27.4471C8.60351 27.7833 8.3387 28.1824 8.15886 28.6213C7.97901 29.0602 7.88766 29.5303 7.89007 30.0046C7.89007 31.1007 8.20329 32.2307 8.80667 33.0891C6.92522 33.305 5.46262 34.819 5.46262 36.6501V40.5372C5.46262 40.7337 5.54066 40.922 5.67957 41.061C5.81848 41.1999 6.00687 41.2779 6.20332 41.2779C6.39976 41.2779 6.58816 41.1999 6.72707 41.061C6.86598 40.922 6.94401 40.7337 6.94401 40.5372V36.6504C6.94401 35.4886 7.98691 34.5434 9.26878 34.5434H13.7115C13.748 34.5434 13.7843 34.5466 13.8208 34.5481C12.4482 35.4303 11.5456 36.9116 11.5456 38.5874V44.2565C11.5456 44.453 11.6236 44.6414 11.7625 44.7803C11.9014 44.9192 12.0898 44.9972 12.2863 44.9972C12.4827 44.9972 12.6711 44.9192 12.81 44.7803C12.9489 44.6414 13.027 44.453 13.027 44.2565V38.5874C13.027 36.7063 14.701 35.176 16.7582 35.176H23.2384C25.2974 35.176 26.9726 36.7063 26.9726 38.5874V44.2565C26.9726 44.453 27.0506 44.6414 27.1895 44.7803C27.3284 44.9192 27.5168 44.9972 27.7133 44.9972C27.9097 44.9972 28.0981 44.9192 28.237 44.7803C28.3759 44.6414 28.454 44.453 28.454 44.2565V38.5874C28.454 36.9116 27.5509 35.4302 26.1776 34.5481C26.2147 34.5466 26.2511 34.5434 26.2881 34.5434H30.7316C32.0135 34.5434 33.0564 35.4886 33.0564 36.6504V40.5375C33.0564 40.7339 33.1344 40.9223 33.2733 41.0612C33.4122 41.2001 33.6006 41.2782 33.7971 41.2782C33.9935 41.2782 34.1819 41.2001 34.3208 41.0612C34.4597 40.9223 34.5378 40.7339 34.5378 40.5375V36.6504C34.5381 34.8191 33.0753 33.305 31.1937 33.0893ZM11.4884 27.8848C12.0505 27.8854 12.5895 28.109 12.9869 28.5065C13.3844 28.904 13.608 29.4429 13.6086 30.0051C13.6086 31.0026 13.0901 33.0622 11.4884 33.0622C10.0279 33.0622 9.3709 31.2745 9.3709 30.0051C9.37114 29.4433 9.59422 28.9046 9.99119 28.5071C10.3882 28.1096 10.9266 27.8858 11.4884 27.8848ZM20 25.4623C20.9093 25.4633 21.7811 25.825 22.4241 26.468C23.067 27.111 23.4287 27.9828 23.4298 28.8921C23.4298 30.7488 22.4986 33.6946 20 33.6946C17.4995 33.6946 16.5676 30.7488 16.5676 28.8921C16.569 27.9824 16.9311 27.1105 17.5746 26.4675C18.2181 25.8245 19.0903 25.463 20 25.4623ZM28.5087 27.8848C29.0708 27.8854 29.6098 28.109 30.0073 28.5065C30.4048 28.904 30.6283 29.4429 30.6289 30.0051C30.6289 31.2745 29.9716 33.0622 28.5087 33.0622C26.9089 33.0622 26.3912 31.0026 26.3912 30.0051C26.3915 29.4433 26.6146 28.9046 27.0115 28.5071C27.4085 28.1096 27.9469 27.8858 28.5087 27.8848Z" fill="#42806B" style="fill:#42806B;fill:color(display-p3 0.2588 0.5020 0.4196);fill-opacity:1;"/></svg>