<svg xmlns="http://www.w3.org/2000/svg" width="40" height="40" viewBox="0 0 40 40" fill="none"><path d="M20.0039 14.8025C20.2094 14.8025 20.4109 14.7197 20.5563 14.5736C20.7016 14.4291 20.7852 14.2275 20.7852 14.0212C20.7852 13.8158 20.7016 13.6142 20.5563 13.4689C20.4109 13.3236 20.2094 13.24 20.0039 13.24C19.7984 13.24 19.5969 13.3236 19.4516 13.4689C19.3063 13.6142 19.2227 13.8158 19.2227 14.0212C19.2227 14.2275 19.3063 14.4291 19.4516 14.5736C19.5969 14.7197 19.7984 14.8025 20.0039 14.8025Z" fill="#42806B" style="fill:#42806B;fill:color(display-p3 0.2588 0.5020 0.4196);fill-opacity:1;"/><path d="M39.0483 18.5215C38.4433 18.0126 37.6497 17.7986 36.871 17.934C35.5885 18.1572 34.6576 19.264 34.6576 20.5658V25.5258C34.6576 25.7136 34.6446 25.8993 34.6217 26.0826C34.5402 25.974 34.4508 25.8697 34.3522 25.7712C33.8297 25.2486 33.1555 24.9685 32.4701 24.9297V14.7985H34.2189C34.5441 14.7985 34.8353 14.5971 34.9499 14.2929C35.0646 13.9886 34.979 13.6452 34.7348 13.4305L20.5159 0.930315C20.2209 0.671015 19.7791 0.671015 19.4842 0.930315L5.2653 13.4305C5.02107 13.6452 4.93537 13.9886 5.05014 14.2929C5.16483 14.5971 5.456 14.7985 5.78116 14.7985H7.53001V24.9295C6.84461 24.9684 6.17038 25.2486 5.64788 25.7711C5.54928 25.8697 5.45983 25.974 5.37842 26.0825C5.35545 25.8991 5.34248 25.7135 5.34248 25.5257V20.5656C5.34248 19.2639 4.41161 18.1571 3.1291 17.9339C2.3505 17.7983 1.55682 18.0125 0.951886 18.5213C0.346879 19.0301 0 19.7753 0 20.5657V25.0078C0 28.4649 1.34627 31.7151 3.79083 34.1597L8.45861 38.8275C8.61119 38.9801 8.81112 39.0563 9.01104 39.0563C9.21097 39.0563 9.41097 38.98 9.56347 38.8275C9.86855 38.5224 9.86855 38.0277 9.56347 37.7225L4.89568 33.0548C2.74628 30.9054 1.56252 28.0476 1.56252 25.0078V20.5657C1.56252 20.2376 1.7065 19.9284 1.9576 19.7173C2.20862 19.5061 2.53792 19.4171 2.86121 19.4734C3.39356 19.5661 3.77989 20.0254 3.77989 20.5657V25.5258C3.77989 27.1202 4.40083 28.6193 5.52827 29.7467L10.0806 34.2991C10.3857 34.6041 10.8804 34.6041 11.1855 34.2991C11.4906 33.994 11.4906 33.4993 11.1855 33.1941L6.75274 28.7613C6.23289 28.2416 6.23289 27.3957 6.75274 26.8759C7.27251 26.3561 8.11838 26.3561 8.63815 26.8759L12.1905 30.4282C12.3369 30.5747 12.5357 30.6571 12.7429 30.6571C14.2566 30.6571 15.6796 31.2465 16.7499 32.3169C18.3419 33.909 19.2187 36.0257 19.2187 38.2772C19.2187 38.7087 19.5685 39.0585 20 39.0585C20.4315 39.0585 20.7813 38.7087 20.7813 38.2772C20.7813 36.0258 21.6581 33.909 23.2501 32.3169C24.3204 31.2466 25.7435 30.6571 27.2571 30.6571C27.4643 30.6571 27.6631 30.5748 27.8095 30.4283L31.3618 26.876C31.8816 26.3562 32.7274 26.3562 33.2473 26.876C33.7671 27.3959 33.7671 28.2416 33.2473 28.7615L28.8145 33.1943C28.5094 33.4994 28.5094 33.9941 28.8145 34.2992C29.1196 34.6042 29.6143 34.6042 29.9194 34.2992L34.4717 29.7469C35.5992 28.6194 36.2201 27.1204 36.2201 25.5259V20.5659C36.2201 20.0255 36.6064 19.5662 37.1388 19.4736C37.4621 19.4173 37.7914 19.5062 38.0425 19.7174C38.2935 19.9286 38.4376 20.2379 38.4376 20.5659V25.0079C38.4376 28.0477 37.2538 30.9055 35.1044 33.0549L30.4365 37.7227C30.1314 38.0278 30.1314 38.5225 30.4365 38.8276C30.5891 38.9802 30.789 39.0565 30.989 39.0565C31.1889 39.0565 31.3889 38.9801 31.5414 38.8276L36.2092 34.1598C38.6537 31.7153 40 28.465 40 25.0079V20.5659C40.0001 19.7753 39.6532 19.0301 39.0483 18.5215ZM26.9262 29.102C25.1195 29.1829 23.4324 29.9249 22.1453 31.212C21.2175 32.1397 20.4952 33.218 20 34.3916C19.5048 33.2181 18.7825 32.1397 17.8548 31.212C16.5677 29.9249 14.8806 29.1829 13.0739 29.102L9.743 25.7711C9.54542 25.5735 9.32581 25.4113 9.09245 25.2829V14.7985H16.4843C16.9158 14.7985 17.2656 14.4488 17.2656 14.0173C17.2656 13.5858 16.9158 13.236 16.4843 13.236H7.85306L20.0001 2.55736L32.147 13.236H23.5157C23.0843 13.236 22.7345 13.5858 22.7345 14.0173C22.7345 14.4488 23.0843 14.7985 23.5157 14.7985H30.9076V25.2829C30.6743 25.4113 30.4547 25.5735 30.257 25.7711L26.9262 29.102Z" fill="#42806B" style="fill:#42806B;fill:color(display-p3 0.2588 0.5020 0.4196);fill-opacity:1;"/><path d="M20.0003 19.1873C18.6056 17.9439 16.4585 17.9911 15.1208 19.3287C14.449 20.0005 14.0791 20.8935 14.0791 21.8435C14.0791 22.7934 14.449 23.6864 15.1208 24.3582L18.5552 27.7927C18.9537 28.191 19.477 28.3903 20.0003 28.3903C20.5237 28.3903 21.047 28.191 21.4454 27.7927L24.8799 24.3582C25.5517 23.6864 25.9216 22.7934 25.9216 21.8435C25.9216 20.8935 25.5517 20.0005 24.8799 19.3287C23.5422 17.9911 21.3951 17.9439 20.0003 19.1873ZM23.775 23.2532L20.3405 26.6877C20.153 26.8753 19.8477 26.8753 19.6602 26.6877L16.2256 23.2532C15.849 22.8767 15.6416 22.376 15.6416 21.8435C15.6416 21.3109 15.849 20.8102 16.2256 20.4337C16.6143 20.045 17.1248 19.8506 17.6354 19.8506C18.1459 19.8506 18.6565 20.045 19.0452 20.4337L19.4478 20.8363C19.7529 21.1414 20.2476 21.1414 20.5528 20.8363L20.9554 20.4337C21.7329 19.6562 22.9978 19.6563 23.775 20.4337C24.1516 20.8102 24.359 21.3109 24.359 21.8435C24.359 22.376 24.1516 22.8767 23.775 23.2532Z" fill="#42806B" style="fill:#42806B;fill:color(display-p3 0.2588 0.5020 0.4196);fill-opacity:1;"/></svg>