<svg xmlns="http://www.w3.org/2000/svg" width="40" height="41" viewBox="0 0 40 41" fill="none"><path d="M0.627333 18.3814C0.850066 18.5045 1.10119 18.567 1.35563 18.5626C1.61006 18.5583 1.85892 18.4873 2.07733 18.3567C3.44769 17.4753 5.03749 16.9952 6.66667 16.9707C8.51946 16.9603 10.3257 17.5507 11.8147 18.6534C12.0531 18.8469 12.3476 18.9583 12.6544 18.9709C12.9612 18.9835 13.2638 18.8967 13.5173 18.7234C15.2786 17.6649 17.2798 17.071 19.3333 16.9974V22.4427L19.0973 22.2067C18.4995 21.605 17.7883 21.1276 17.005 20.8022C16.2216 20.4768 15.3816 20.3098 14.5333 20.3107H14.4753C13.1926 20.3129 11.9394 20.6952 10.8738 21.4094C9.80832 22.1235 8.97836 23.1374 8.48882 24.323C7.99928 25.5086 7.87213 26.8127 8.12342 28.0706C8.37471 29.3284 8.99317 30.4836 9.90067 31.3901L19.146 40.6181C19.3736 40.8433 19.6808 40.9697 20.001 40.9697C20.3212 40.9697 20.6284 40.8433 20.856 40.6181L30.0987 31.3901C31.3158 30.1721 31.9995 28.5206 31.9995 26.7987C31.9995 25.0768 31.3158 23.4254 30.0987 22.2074C28.8778 20.9906 27.2244 20.3073 25.5007 20.3073C23.777 20.3073 22.1235 20.9906 20.9027 22.2074L20.6667 22.4441V16.9974C22.7202 17.071 24.7214 17.6649 26.4827 18.7234C26.7362 18.8967 27.0388 18.9835 27.3456 18.9709C27.6524 18.9583 27.9469 18.8469 28.1853 18.6534C29.6743 17.5507 31.4805 16.9603 33.3333 16.9707C34.9627 16.9955 36.5526 17.4756 37.9233 18.3567C38.1417 18.487 38.3904 18.5578 38.6447 18.5621C38.899 18.5665 39.15 18.5042 39.3727 18.3814C39.5597 18.2828 39.7167 18.1356 39.8272 17.9553C39.9376 17.775 39.9973 17.5682 40 17.3567V17.2287C40 12.8561 37.902 8.7554 34.092 5.68274C30.0663 2.55694 25.0962 0.895075 20 0.970736C14.9038 0.895075 9.93372 2.55694 5.908 5.68274C2.098 8.7554 0 12.8561 0 17.2287V17.3567C0.00272494 17.5682 0.0624379 17.775 0.172845 17.9553C0.283253 18.1356 0.440265 18.2828 0.627333 18.3814ZM21.846 23.1514C22.5674 22.4284 23.4871 21.9355 24.4886 21.7351C25.4902 21.5347 26.5286 21.6357 27.4728 22.0255C28.4169 22.4152 29.2242 23.0761 29.7927 23.9247C30.3612 24.7733 30.6654 25.7713 30.6667 26.7927V26.7981C30.6709 27.476 30.5395 28.148 30.2803 28.7745C30.0211 29.4009 29.6393 29.9693 29.1573 30.4461L20 39.5874L10.8447 30.4467C10.124 29.7262 9.63306 28.8083 9.43388 27.8089C9.2347 26.8095 9.33622 25.7735 9.72561 24.8318C10.115 23.89 10.7748 23.0849 11.6216 22.518C12.4684 21.9511 13.4643 21.6479 14.4833 21.6467H14.506C15.1834 21.6457 15.8544 21.7783 16.4805 22.0369C17.1066 22.2956 17.6755 22.6752 18.1547 23.1541L19.5293 24.5261C19.6544 24.6511 19.8239 24.7213 20.0007 24.7213C20.1774 24.7213 20.347 24.6511 20.472 24.5261L21.846 23.1514ZM20 15.6374C17.6781 15.6295 15.3894 16.1893 13.3333 17.2681V17.2287C13.3333 9.13874 16.386 2.30407 20 2.30407C23.614 2.30407 26.6667 9.13874 26.6667 17.2287V17.2681C24.6105 16.1895 22.3219 15.6297 20 15.6374ZM38.6667 17.2287C38.6506 17.2297 38.6347 17.226 38.6207 17.2181C37.0434 16.2012 35.2099 15.6531 33.3333 15.6374C31.4506 15.6496 29.6068 16.1747 28 17.1561C27.986 10.6541 26.1847 5.16674 23.52 2.57074C27.0736 3.06986 30.4318 4.50077 33.2533 6.71807C36.7447 9.5354 38.6667 13.2674 38.6667 17.2287ZM1.33333 17.2287C1.33333 13.2674 3.25533 9.5354 6.74533 6.72074C9.56695 4.50227 12.9256 3.07042 16.48 2.57074C13.8133 5.16407 12.0133 10.6514 12.0007 17.1534C10.3934 16.173 8.54936 15.6489 6.66667 15.6374C4.79011 15.6536 2.95675 16.2024 1.38 17.2201C1.36591 17.2283 1.34962 17.2321 1.33333 17.2307V17.2287Z" fill="#42806B" style="fill:#42806B;fill:color(display-p3 0.2588 0.5020 0.4196);fill-opacity:1;"/><path d="M18.6487 26.9707C18.5279 26.974 18.4102 27.01 18.3083 27.0749C18.2063 27.1399 18.124 27.2313 18.07 27.3394L16.9213 29.6374H14.6667C14.4899 29.6374 14.3203 29.7076 14.1953 29.8327C14.0702 29.9577 14 30.1273 14 30.3041C14 30.4809 14.0702 30.6505 14.1953 30.7755C14.3203 30.9005 14.4899 30.9707 14.6667 30.9707H17.3333C17.4572 30.9708 17.5787 30.9363 17.6841 30.8712C17.7895 30.8061 17.8746 30.7129 17.93 30.6021L18.706 29.0494L20.7547 32.6374C20.8113 32.7357 20.8921 32.8179 20.9894 32.8762C21.0867 32.9345 21.1973 32.9671 21.3107 32.9707H21.3333C21.4431 32.9708 21.5511 32.9437 21.6479 32.8919C21.7446 32.8402 21.8271 32.7654 21.888 32.6741L23.0233 30.9707H25.3333C25.5101 30.9707 25.6797 30.9005 25.8047 30.7755C25.9298 30.6505 26 30.4809 26 30.3041C26 30.1273 25.9298 29.9577 25.8047 29.8327C25.6797 29.7076 25.5101 29.6374 25.3333 29.6374H22.6667C22.5569 29.6374 22.4489 29.6645 22.3521 29.7162C22.2554 29.768 22.1729 29.8428 22.112 29.9341L21.3787 31.0367L19.2453 27.3067C19.1841 27.2033 19.0968 27.1178 18.992 27.0588C18.8873 26.9998 18.7689 26.9694 18.6487 26.9707Z" fill="#42806B" style="fill:#42806B;fill:color(display-p3 0.2588 0.5020 0.4196);fill-opacity:1;"/></svg>